<?xml version="1.0" encoding="utf-8"?>
<!-- Generator: Adobe Illustrator 23.0.4, SVG Export Plug-In . SVG Version: 6.00 Build 0)  -->
<svg version="1.1" id="Layer_1" xmlns="http://www.w3.org/2000/svg" xmlns:xlink="http://www.w3.org/1999/xlink" x="0px" y="0px"
	 viewBox="0 0 100 100" style="enable-background:new 0 0 100 100;" xml:space="preserve">
<style type="text/css">
	.st0{fill:#FFFFFF;}
	.st1{fill:none;stroke:#FFFFFF;stroke-width:2;stroke-miterlimit:10;}
</style>
<g>
	<rect x="-1" width="101" height="101"/>
</g>
<rect x="15.5" y="16.8" width="57" height="58.5"/>
<path class="st0" d="M2.5,32.3"/>
<rect x="19.7" y="21.7" class="st0" width="53.8" height="53.8"/>
<path d="M8.8,14v71.1h71.1V14H8.8z M44.4,34.3L44.4,34.3l0,25.7c0,5.1-3.7,9.7-9.8,9.7c-3.5,0-5.7-1.6-7.5-3.6l4.5-3.6
	c0.8,0.8,2,1.5,3.2,1.5c2.2,0,3.9-1.8,3.9-4.7v-25h-6.1V29h11.8V34.3z M69.1,69.3h-5.8V51.4h-7.1v17.9h-5.8V29.1h5.8v17.3h7.1V29.1
	h5.8V69.3z"/>
<rect x="11.2" y="12.9" class="st1" width="76.3" height="73.3"/>
</svg>
