<?xml version="1.0" encoding="utf-8"?>
<!-- Generator: Adobe Illustrator 23.0.4, SVG Export Plug-In . SVG Version: 6.00 Build 0)  -->
<svg version="1.1" id="Layer_1" xmlns="http://www.w3.org/2000/svg" xmlns:xlink="http://www.w3.org/1999/xlink" x="0px" y="0px"
	 viewBox="0 0 202 101" style="enable-background:new 0 0 202 101;" xml:space="preserve">
<style type="text/css">
	.st0{fill:#FFFFFF;}
	.st1{fill:url(#SVGID_1_);}
</style>
<g>
	<rect x="101" width="101" height="101"/>
</g>
<rect x="117.5" y="16.8" width="57" height="58.5"/>
<path class="st0" d="M104.5,32.3"/>
<rect x="121.7" y="21.7" class="st0" width="53.8" height="53.8"/>
<path d="M110.8,14v71.1h71.1V14H110.8z M146.4,34.3L146.4,34.3V60c0,5.1-3.7,9.7-9.8,9.7c-3.5,0-5.7-1.6-7.5-3.6l4.5-3.6
	c0.8,0.8,2,1.5,3.2,1.5c2.2,0,3.9-1.8,3.9-4.7v-25h-6.1V29h11.8L146.4,34.3L146.4,34.3z M171.1,69.3h-5.8V51.4h-7.1v17.9h-5.8V29.1
	h5.8v17.3h7.1V29.1h5.8V69.3z"/>
<g>
	<rect width="101" height="101"/>
</g>
<rect x="16.5" y="16.8" width="57" height="58.5"/>
<path class="st0" d="M3.5,32.3"/>
<linearGradient id="SVGID_1_" gradientUnits="userSpaceOnUse" x1="20.7" y1="53.4" x2="74.5" y2="53.4" gradientTransform="matrix(1 0 0 -1 0 102)">
	<stop  offset="0" style="stop-color:#FFFFFF"/>
	<stop  offset="0" style="stop-color:#EF8D36"/>
	<stop  offset="1" style="stop-color:#DA3688"/>
	<stop  offset="1" style="stop-color:#000000"/>
</linearGradient>
<rect x="20.7" y="21.7" class="st1" width="53.8" height="53.8"/>
<path d="M9.8,14v71.1h71.1V14H9.8z M45.4,34.3L45.4,34.3V60c0,5.1-3.7,9.7-9.8,9.7c-3.5,0-5.7-1.6-7.5-3.6l4.5-3.6
	c0.8,0.8,2,1.5,3.2,1.5c2.2,0,3.9-1.8,3.9-4.7v-25h-6.1V29h11.8C45.4,29,45.4,34.3,45.4,34.3z M70.1,69.3h-5.8V51.4h-7.1v17.9h-5.8
	V29.1h5.8v17.3h7.1V29.1h5.8V69.3z"/>
</svg>
